<svg preserveAspectRatio="none" overflow="visible" style="display: block;" width="789" height="87" viewBox="0 0 789 87" fill="none" xmlns="http://www.w3.org/2000/svg">
<g id="&#234;&#181;&#172;&#235;&#166;&#132;">
<path id="Vector" d="M789 87H727C727 87 727.468 68 744.069 68C754.131 68 756.323 74.5154 760.726 77.4906C765.617 80.8048 767.621 77.7919 773.598 77.4906C780.025 77.1516 787.613 79.0912 789 86.9812V87Z" fill="white"/>
<path id="Vector_2" d="M0.0213697 73H171C171 73 170.316 51.322 148.028 50.3675C134.949 49.7948 132.364 57.5157 119.414 52.3189C106.464 47.1221 105.865 19.2292 64.0021 23.429C34.3197 26.4198 30.986 51.6826 30.986 51.6826C30.986 51.6826 4.0816 45.5737 0 73H0.0213697Z" fill="white"/>
<path id="Vector_3" d="M749.981 44H600C600 44 600.6 24.9233 620.151 24.0834C631.623 23.5794 633.892 30.3738 645.251 25.8006C656.611 21.2275 657.136 -3.31834 693.858 0.377532C719.895 3.00944 722.819 25.2407 722.819 25.2407C722.819 25.2407 746.42 19.8648 750 44H749.981Z" fill="white"/>
</g>
</svg>
